<?xml version="1.0" encoding="UTF-8"?>
<svg width="120pt" height="120pt" version="1.1" viewBox="0 0 1200 1200" xmlns="http://www.w3.org/2000/svg">
 <defs>
  <clipPath id="a">
   <path d="m322 222.14h556v755.71h-556z"/>
  </clipPath>
 </defs>
 <path d="m1200 600c0 214.36-114.36 412.44-300 519.62-185.64 107.18-414.36 107.18-600 0-185.64-107.18-300-305.26-300-519.62s114.36-412.44 300-519.62c185.64-107.18 414.36-107.18 600 0 185.64 107.18 300 305.26 300 519.62" fill="#d2d2d2"/>
 <g clip-path="url(#a)">
  <path d="m322.05 396.34h135.77c5.125-40.988 20.492-79.414 38.426-107.59 56.359-89.66 151.14-87.098 207.5 0 20.492 28.18 33.301 66.605 38.426 107.59h135.77v486.73c0 51.234-40.988 94.785-92.223 94.785h-371.45c-51.234 0-92.223-43.551-92.223-94.785zm161.39 0h233.12c-5.125-35.863-17.934-69.168-33.301-94.785-46.113-71.73-117.84-71.73-166.51 0-15.371 25.617-28.18 58.922-33.301 94.785zm248.49 38.426c-10.246 0-20.492 7.6836-20.492 20.492 0 10.246 10.246 20.492 20.492 20.492 12.809 0 20.492-10.246 20.492-20.492 0-12.809-7.6836-20.492-20.492-20.492zm-263.86 0c12.809 0 20.492 7.6836 20.492 20.492 0 10.246-7.6836 20.492-20.492 20.492-10.246 0-20.492-10.246-20.492-20.492 0-12.809 10.246-20.492 20.492-20.492z" fill="#fff" fill-rule="evenodd"/>
 </g>
</svg>
