<?xml version="1.0" encoding="UTF-8"?>
<svg width="350pt" height="350pt" version="1.1" viewBox="0 0 1200 1200" xmlns="http://www.w3.org/2000/svg">
 <path d="m874.19 266.95c35.914 0 65.117 29.215 65.117 65.117s-29.215 65.117-65.117 65.117c-35.914 0-65.117-29.215-65.117-65.117 0-35.898 29.203-65.117 65.117-65.117zm0 200.6c74.707 0 135.49-60.77 135.49-135.49 0-74.707-60.77-135.49-135.49-135.49-74.707 0-135.48 60.77-135.48 135.49s60.77 135.49 135.48 135.49zm155.6 624.93h-859.57c-34.566 0-62.707-28.125-62.707-62.707l0.003907-301.55 307.95-307.95c13.348-13.348 31.188-20.707 50.266-20.707s36.918 7.3594 50.266 20.707l576.48 576.46v33.023c0.011718 34.605-28.113 62.719-62.68 62.719zm-859.57-984.95c-34.578 0-62.707 28.113-62.707 62.707v458.51l258.21-258.22c26.621-26.633 62.156-41.289 100.02-41.289s73.371 14.656 100.02 41.289l526.74 526.75v-727.04c0-34.578-28.141-62.707-62.707-62.707z" fill="#d2d2d2" fill-rule="evenodd"/>
</svg>
