<?xml version="1.0" encoding="UTF-8"?>
<svg width="25pt" height="25pt" version="1.1" viewBox="0 0 1200 1200" xmlns="http://www.w3.org/2000/svg">
 <path d="m701.82 464.23-101.82 101.83-101.82-101.82c-9.3359-9.3359-24.613-9.3359-33.938 0-9.3359 9.3359-9.3359 24.613 0 33.938l101.82 101.82-101.82 101.82c-9.3359 9.3359-9.3359 24.613 0 33.938 9.3359 9.3359 24.613 9.3359 33.938 0l101.82-101.82 101.82 101.82c9.3359 9.3359 24.613 9.3359 33.938 0 9.3359-9.3359 9.3359-24.613 0-33.938l-101.82-101.82 101.82-101.82c9.3359-9.3359 9.3359-24.613 0-33.938-9.3242-9.3477-24.602-9.3477-33.938-0.011719z" fill="#9b9b9b"/>
</svg>
