<?xml version="1.0" encoding="UTF-8"?>
<svg width="45pt" height="45pt" version="1.1" viewBox="0 0 1200 1200" xmlns="http://www.w3.org/2000/svg">
 <path d="m1088.8 551.53-1.6914 0.98047-6.4883 8.2891c-1.5273 1.9102-2.9453 3.8203-4.418 5.7812-1.582 1.2578-3.1641 2.457-4.418 3.5469l-2.2383 1.8555-2.0195 2.125-470.73 494.79-478.14-492.38c-0.82031-1.3086-1.8008-2.7812-3-4.3633l-0.76562-1.1445c-1.7969-2.8945-4.8516-7.8008-9.5977-13.148-33.164-43.309-50.727-94.691-50.727-148.75 0-135.38 110.12-245.45 245.45-245.45 63.492 0 123.82 24.328 169.86 68.508l5.2344 5.0195 86.402 86.453 38.562 38.566 38.562-38.566 62.781-62.672 28.91-27.707c45.273-43.418 105.55-67.309 169.69-67.309 135.38 0 245.45 111.11 245.45 247.74 0 49.855-27.707 97.258-56.672 137.84m-188.78-440.13c-80.562 0-153.55 30.762-207.44 82.473l-0.10938-0.65625-2.125 1.8555c-1.582 1.5273-3.1094 2.8906-4.6367 4.418l-85.637 85.582-86.562-86.617c-0.92969-0.92578-1.8555-1.8555-2.7812-2.7812l-3-3.0547-0.10938 0.21875c-53.891-51.766-126.93-83.73-207.6-83.73-165.66 0-300 134.29-300 300 0 69.438 23.945 133.15 63.547 183.98 2.3438 2.2891 3.7617 4.7461 5.3438 7.2539l0.054688 0.054688 0.49219 0.70703c0.32812 0.49219 0.48828 0.98438 0.76172 1.4727 1.582 1.6367 2.6719 3.6562 3.8203 5.5664 0.21875 0.32812 0.37891 0.65234 0.59766 0.92578 0.27344 0.49219 0.71094 0.92969 0.98438 1.4727l482.07 496.36c10.637 10.637 24.602 15.93 38.566 15.93 13.961 0 27.926-5.293 38.562-15.93l472.2-495.16c2.2383-1.8516 5.7266-4.418 7.9648-6.1094 0.21875-0.16016 0.21875-0.21484 0.37891-0.37891 2.7305-3.5469 5.293-7.1484 8.0742-10.691 0.87109-1.0898 2.2383-1.418 3.2188-2.3477 38.562-52.582 73.363-111.21 73.363-178.53 0-165.71-134.29-302.29-300-302.29" fill="#d2d2d2" fill-rule="evenodd"/>
</svg>
