<?xml version="1.0" encoding="UTF-8"?>
<svg width="25pt" height="25pt" version="1.1" viewBox="0 0 1200 1200" xmlns="http://www.w3.org/2000/svg">
 <path d="m1110.6 450h-349.88l-108.15-332.77c-14.398-44.477-33.523-66.75-52.574-66.75s-38.102 22.273-52.574 66.75l-108.15 332.77h-349.88c-93.676 0-108.23 45-32.477 99.977l283.05 205.65-108.15 332.77c-18.824 58.051-9.1484 90.074 20.926 90.074 15.977 0 37.801-9.0742 64.199-28.273l283.05-205.57 282.98 205.57c26.398 19.199 48.227 28.273 64.199 28.273 30 0 39.75-32.023 20.852-90.074l-108.07-332.77 283.05-205.65c75.746-54.977 61.195-99.977-32.402-99.977zm-338.78 276.98 106.2 326.85-278.02-201.98-278.1 201.98 106.27-326.85-278.1-201.98h343.65l106.28-326.85 106.2 326.85h343.73z" fill="#d2d2d2"/>
</svg>
