<?xml version="1.0" encoding="UTF-8"?>
<svg width="45pt" height="45pt" version="1.1" viewBox="0 0 1200 1200" xmlns="http://www.w3.org/2000/svg">
 <path d="m1200 404.57c0-165.71-134.29-295.47-300-295.47-80.562 0-153.55 34.199-207.49 85.91l-0.10937 1.0352-2.125 2.6719c-1.5273 1.5273-3.0547 3.3281-4.582 4.9102l-85.637 85.746-86.617-86.508c-0.92969-0.92969-1.8008-1.8008-2.7812-2.7305l-3-3-0.054688 0.21875c-53.945-51.762-126.98-83.727-207.6-83.727-165.71 0-300 134.29-300 300 0 69.438 23.945 133.14 63.547 183.98 2.2891 2.293 3.7617 4.8008 5.2891 7.2578l0.054687 0.054687 0.54688 0.70703c0.27344 0.49219 0.43359 0.98047 0.76172 1.4727 1.582 1.6914 2.6172 3.6562 3.7656 5.5625 0.27344 0.32813 0.37891 0.65625 0.65234 0.92969 0.27344 0.54297 0.65625 0.92578 0.98437 1.4727l482.02 496.36c21.328 21.273 55.855 21.273 77.184 0l472.14-495.16c1.3633-1.9102 13.801-14.508 15.492-16.09 1.8008-2.6211 10.418-18.219 12.488-18.219h-0.10938c40.691-54.547 65.184-106.86 65.184-177.38" fill="#d2d2d2" fill-rule="evenodd"/>
</svg>
