<?xml version="1.0" encoding="UTF-8"?>
<svg width="25pt" height="25pt" version="1.1" viewBox="0 0 1200 1200" xmlns="http://www.w3.org/2000/svg">
 <g fill="#d2d2d2">
  <path d="m1050 616.8h-63.602c-10.801 0-19.199-8.3984-19.199-19.199 0-10.801 8.3984-19.199 19.199-19.199h63.602c10.801 0 19.199 8.3984 19.199 19.199 0 9.5977-8.3984 19.199-19.199 19.199z"/>
  <path d="m687.6 616.8h-579.6c-10.801 0-19.199-8.3984-19.199-19.199 0-10.801 8.3984-19.199 19.199-19.199h580.8c10.801 0 19.199 8.3984 19.199 19.199-1.1992 9.5977-9.6016 19.199-20.398 19.199z"/>
  <path d="m836.4 709.2c-62.398 0-111.6-50.398-111.6-111.6 0-62.398 50.398-111.6 111.6-111.6 62.398 0 111.6 50.398 111.6 111.6s-50.398 111.6-111.6 111.6zm0-186c-40.801 0-73.199 33.602-73.199 73.199 0 40.801 33.602 73.199 73.199 73.199 40.801 0 73.199-33.602 73.199-73.199 0.003906-39.598-32.398-73.199-73.199-73.199z"/>
  <path d="m122.4 888h63.602c10.801 0 19.199-8.3984 19.199-19.199s-8.3984-19.199-19.199-19.199h-63.602c-10.801 0-19.199 8.3984-19.199 19.199s8.4023 19.199 19.199 19.199z"/>
  <path d="m483.6 888h580.8c10.801 0 19.199-8.3984 19.199-19.199s-8.3984-19.199-19.199-19.199h-580.8c-10.801 0-19.199 8.3984-19.199 19.199-0.003906 10.801 8.3984 19.199 19.199 19.199z"/>
  <path d="m223.2 868.8c0-62.398 50.398-111.6 111.6-111.6 62.398 0 111.6 50.398 111.6 111.6 0 62.398-50.398 111.6-111.6 111.6-61.199-0.003906-111.6-50.402-111.6-111.6zm38.402 0c0 40.801 33.602 73.199 73.199 73.199 40.801 0 73.199-33.602 73.199-73.199 0-40.801-33.602-73.199-73.199-73.199-39.602 0-73.199 32.398-73.199 73.199z"/>
  <path d="m108 344.4h63.602c10.801 0 19.199-8.3984 19.199-19.199s-8.3984-19.199-19.199-19.199h-63.602c-10.801 0-19.199 8.3984-19.199 19.199s8.3984 19.199 19.199 19.199z"/>
  <path d="m469.2 344.4h580.8c10.801 0 19.199-8.3984 19.199-19.199s-8.3984-19.199-19.199-19.199h-580.8c-10.801 0-19.199 8.3984-19.199 19.199s8.3984 19.199 19.199 19.199z"/>
  <path d="m208.8 325.2c0-62.398 50.398-111.6 111.6-111.6 62.398 0 111.6 50.398 111.6 111.6 0 62.398-50.398 111.6-111.6 111.6-61.203 1.1992-111.6-49.199-111.6-111.6zm38.398 0c0 40.801 33.602 73.199 73.199 73.199 40.801 0 73.199-33.602 73.199-73.199 0-40.801-33.602-73.199-73.199-73.199-39.598 0-73.199 32.398-73.199 73.199z"/>
 </g>
</svg>
