<?xml version="1.0" encoding="UTF-8"?>
<svg width="1200pt" height="1200pt" version="1.1" viewBox="0 0 1200 1200" xmlns="http://www.w3.org/2000/svg">
 <path d="m367.41 204.73c58.859 0 117.97 20.398 165.89 61.992l66.699 57.879 66.672-57.875c47.953-41.594 107.05-61.98 165.91-61.98 70.836 0 141.29 29.543 191.35 87.238 91.68 105.61 80.352 265.57-25.273 357.25l-12.336 10.727-386.32 335.3-386.34-335.33-12.336-10.727c-105.64-91.68-116.91-251.64-25.246-357.25 50.086-57.695 120.5-87.242 191.34-87.23m0-56.277c-89.797-0.011719-175.03 38.844-233.83 106.63-54.215 62.434-80.844 142.22-75.023 224.7 5.832 82.477 43.414 157.74 105.85 211.92l12.359 10.738 386.36 335.32c10.559 9.1914 23.746 13.777 36.875 13.777s26.328-4.5977 36.875-13.777l386.34-335.33 12.312-10.703c62.461-54.215 100.08-129.47 105.9-211.95 5.8203-82.477-20.832-162.27-75.023-224.71-58.801-67.754-144.04-106.62-233.83-106.62-74.473 0-146.46 26.902-202.79 75.742l-29.781 25.898-29.785-25.859c-56.305-48.867-128.33-75.781-202.8-75.781z" fill="#d2d2d2"/>
</svg>
