<?xml version="1.0" encoding="UTF-8"?>
<svg width="120pt" height="120pt" version="1.1" viewBox="0 0 1200 1200" xmlns="http://www.w3.org/2000/svg">
 <g>
  <path d="m1200 600c0 214.36-114.36 412.44-300 519.62-185.64 107.18-414.36 107.18-600 0-185.64-107.18-300-305.26-300-519.62s114.36-412.44 300-519.62c185.64-107.18 414.36-107.18 600 0 185.64 107.18 300 305.26 300 519.62" fill="#d2d2d2"/>
  <path d="m600 859.78c294.47-231.75 283.39-313.64 283.39-377.86s-53.137-141.7-141.7-141.7c-88.559 0-141.7 94.465-141.7 94.465s-53.137-94.465-141.7-94.465-141.7 77.484-141.7 141.7-11.074 146.14 283.39 377.86z" fill="#fff"/>
 </g>
</svg>
