<?xml version="1.0" encoding="UTF-8"?>
<svg width="120pt" height="120pt" version="1.1" viewBox="0 0 1200 1200" xmlns="http://www.w3.org/2000/svg">
 <g>
  <path d="m1200 600c0 214.36-114.36 412.44-300 519.62-185.64 107.18-414.36 107.18-600 0-185.64-107.18-300-305.26-300-519.62s114.36-412.44 300-519.62c185.64-107.18 414.36-107.18 600 0 185.64 107.18 300 305.26 300 519.62" fill="#d2d2d2"/>
  <path d="m900.08 866.71-120.95-120.95c40.43-47.957 64.898-109.77 64.898-177.25 0-151.93-123.59-275.52-275.52-275.52-151.93-0.003906-275.52 123.59-275.52 275.52 0 151.93 123.59 275.52 275.52 275.52 67.48 0 129.29-24.465 177.25-64.898l120.95 120.95c4.5977 4.5977 10.645 6.9258 16.688 6.9258 6.0469 0 12.09-2.2969 16.688-6.9258 9.2266-9.2266 9.2266-24.184 0-33.41zm-331.57-69.902c-125.89 0-228.29-102.4-228.29-228.29s102.4-228.29 228.29-228.29 228.29 102.4 228.29 228.29-102.4 228.29-228.29 228.29z" fill="#fff"/>
 </g>
</svg>
