<?xml version="1.0" encoding="UTF-8"?>
<svg width="120pt" height="120pt" version="1.1" viewBox="0 0 1200 1200" xmlns="http://www.w3.org/2000/svg">
 <g fill="#d2d2d2">
  <path d="m857.5 776c-8.5039-4.8711-18.246-7.1328-28.027-6.5117-9.7773 0.62109-19.156 4.1055-26.973 10.012l-85.5 64c-26.602 19.887-59.055 30.383-92.262 29.84-33.211-0.54297-65.301-12.094-91.238-32.84l-130.5-104c-8.9297-7.1641-20.051-11.047-31.5-11-10.367-0.078125-20.5 3.0664-29 9l-242.5 173c1.9258 38.469 18.574 74.723 46.5 101.25s64.984 41.297 103.5 41.25h700c37.473 0.16406 73.648-13.703 101.41-38.875 27.762-25.168 45.098-59.816 48.594-97.125z"/>
  <path d="m750 400c0 27.613-22.387 50-50 50s-50-22.387-50-50 22.387-50 50-50 50 22.387 50 50"/>
  <path d="m100 785 184.5-131.5c26.594-19 58.668-28.793 91.34-27.891s64.156 12.453 89.66 32.891l130 104c8.7852 6.8516 19.609 10.574 30.75 10.574s21.965-3.7227 30.75-10.574l85.5-62.5c23.398-17.621 51.445-28.004 80.68-29.871 29.23-1.8672 58.371 4.8672 83.82 19.371l193 110.5v-500c0-39.781-15.805-77.938-43.934-106.07s-66.285-43.934-106.07-43.934h-700c-39.781 0-77.938 15.805-106.07 43.934s-43.934 66.285-43.934 106.07zm600-535c39.781 0 77.938 15.805 106.07 43.934s43.934 66.285 43.934 106.07-15.805 77.938-43.934 106.07-66.285 43.934-106.07 43.934-77.938-15.805-106.07-43.934-43.934-66.285-43.934-106.07 15.805-77.938 43.934-106.07 66.285-43.934 106.07-43.934z"/>
 </g>
</svg>
