<?xml version="1.0" encoding="UTF-8"?>
<svg width="120pt" height="120pt" version="1.1" viewBox="0 0 1200 1200" xmlns="http://www.w3.org/2000/svg">
 <g fill="#d2d2d2">
  <path d="m1012.5 75h-825c-29.836 0-58.453 11.852-79.551 32.949-21.098 21.098-32.949 49.715-32.949 79.551v825c0 29.836 11.852 58.453 32.949 79.551 21.098 21.098 49.715 32.949 79.551 32.949h825c29.836 0 58.453-11.852 79.551-32.949 21.098-21.098 32.949-49.715 32.949-79.551v-825c0-29.836-11.852-58.453-32.949-79.551-21.098-21.098-49.715-32.949-79.551-32.949zm-825 75h825c9.9453 0 19.484 3.9492 26.516 10.984 7.0352 7.0312 10.984 16.57 10.984 26.516v602.14l-157.05-112.2c-19.973-14.145-43.996-21.426-68.461-20.75-24.465 0.67969-48.051 9.2734-67.215 24.5l-117 93.75-120.3-120.3h0.003906c-18.422-18.328-42.609-29.738-68.473-32.293-25.863-2.5547-51.812 3.8984-73.465 18.27l-228.04 151.84v-604.95c0-9.9453 3.9492-19.484 10.984-26.516 7.0312-7.0352 16.57-10.984 26.516-10.984zm825 900h-825c-9.9453 0-19.484-3.9492-26.516-10.984-7.0352-7.0312-10.984-16.57-10.984-26.516v-129.94l269.62-179.74c7.2109-4.8125 15.867-6.9844 24.492-6.1328 8.6289 0.84766 16.699 4.6562 22.832 10.785l219.04 219.04v-0.003906c9.5234 9.1992 23.195 12.695 35.965 9.1914 12.773-3.5 22.75-13.477 26.25-26.25 3.5039-12.77 0.007813-26.441-9.1914-35.965l-45.375-45.375 110.51-88.387c6.3711-5.1094 14.238-7.9961 22.398-8.2266 8.1641-0.23047 16.18 2.2109 22.828 6.9492l200.62 143.32v130.73c0 9.9453-3.9492 19.484-10.984 26.516-7.0312 7.0352-16.57 10.984-26.516 10.984z"/>
  <path d="m750 562.5c39.781 0 77.938-15.805 106.07-43.934s43.934-66.285 43.934-106.07-15.805-77.938-43.934-106.07-66.285-43.934-106.07-43.934-77.938 15.805-106.07 43.934-43.934 66.285-43.934 106.07 15.805 77.938 43.934 106.07 66.285 43.934 106.07 43.934zm0-225c19.891 0 38.969 7.9023 53.031 21.969 14.066 14.062 21.969 33.141 21.969 53.031s-7.9023 38.969-21.969 53.031c-14.062 14.066-33.141 21.969-53.031 21.969s-38.969-7.9023-53.031-21.969c-14.066-14.062-21.969-33.141-21.969-53.031s7.9023-38.969 21.969-53.031c14.062-14.066 33.141-21.969 53.031-21.969z"/>
 </g>
</svg>
