<?xml version="1.0" encoding="UTF-8"?>
<svg width="120pt" height="120pt" version="1.1" viewBox="0 0 1200 1200" xmlns="http://www.w3.org/2000/svg">
 <g fill="#d2d2d2">
  <path d="m200.7 674.62c136.74-50.012 287.58-44.781 420.53 14.586 87.203 38.793 183.88 51.105 278.02 35.402l225.75-37.5v-499.61c0-29.836-11.852-58.453-32.949-79.551-21.098-21.098-49.715-32.949-79.551-32.949h-825c-29.836 0-58.453 11.852-79.551 32.949-21.098 21.098-32.949 49.715-32.949 79.551v532.84zm605.55-412.12c34.809 0 68.195 13.828 92.809 38.441 24.613 24.613 38.441 58 38.441 92.809s-13.828 68.195-38.441 92.809c-24.613 24.613-58 38.441-92.809 38.441s-68.195-13.828-92.809-38.441c-24.613-24.613-38.441-58-38.441-92.809s13.828-68.195 38.441-92.809c24.613-24.613 58-38.441 92.809-38.441z"/>
  <path d="m911.59 798.75c-108.62 18.152-220.2 3.9492-320.81-40.836-115.21-51.484-245.95-56.031-364.46-12.676l-151.31 54.863v212.4c0 29.836 11.852 58.453 32.949 79.551 21.098 21.098 49.715 32.949 79.551 32.949h825c29.836 0 58.453-11.852 79.551-32.949 21.098-21.098 32.949-49.715 32.949-79.551v-249.49z"/>
 </g>
</svg>
