<?xml version="1.0" encoding="UTF-8"?>
<svg width="120pt" height="120pt" version="1.1" viewBox="0 0 1200 1200" xmlns="http://www.w3.org/2000/svg">
 <g fill="#d2d2d2">
  <path d="m937.5 75h-675c-103.38 0-187.5 84.117-187.5 187.5v675c0 103.38 84.117 187.5 187.5 187.5h675c103.38 0 187.5-84.117 187.5-187.5v-675c0-103.38-84.117-187.5-187.5-187.5zm0 975h-675c-62.035 0-112.5-50.465-112.5-112.5v-281.25h254.96c64.855 0 125.28 29.039 165.75 79.688 54.82 68.52 136.6 107.81 224.34 107.81h254.96v93.75c0 62.035-50.465 112.5-112.5 112.5zm-675-900h675c62.035 0 112.5 50.465 112.5 112.5v506.25h-254.96c-64.855 0-125.28-29.039-165.75-79.688-54.82-68.52-136.6-107.81-224.34-107.81h-254.96v-318.75c0-62.035 50.465-112.5 112.5-112.5z"/>
  <path d="m825 525c82.727 0 150-67.273 150-150s-67.273-150-150-150-150 67.273-150 150 67.273 150 150 150zm0-225c41.344 0 75 33.656 75 75s-33.656 75-75 75-75-33.656-75-75 33.656-75 75-75z"/>
 </g>
</svg>
