<?xml version="1.0" encoding="UTF-8"?>
<svg width="500pt" height="500pt" version="1.1" viewBox="0 0 1200 1200" xmlns="http://www.w3.org/2000/svg">
 <path d="m762.5 450c0 34.449-28.051 62.5-62.5 62.5s-62.5-28.051-62.5-62.5 28.051-62.5 62.5-62.5 62.5 28.051 62.5 62.5zm28.25 301.2-81.898 54.602 17.648 17.648c14.648 14.648 14.648 38.398 0 53.051-14.648 14.648-38.398 14.648-53.051 0l-214.65-214.65c-4.8984-4.8984-12.801-4.8984-17.699 0l-273.5 273.5c15.699 58.648 68.801 102.15 132.3 102.15h600c65.648 0 120.5-46.301 134.1-107.9l-228.7-177.9c-4.3008-3.3008-10.102-3.5-14.648-0.5zm246.75-451.2v537.2l-186.05-144.7c-29.75-23.051-70.852-24.551-102.25-3.6992l-94.449 63-142.9-142.9c-34.102-34.102-89.648-34.102-123.75 0l-225.65 225.65-0.003906-534.55c0-75.852 61.648-137.5 137.5-137.5h600c75.852 0 137.5 61.648 137.5 137.5zm-200 150c0-75.852-61.648-137.5-137.5-137.5s-137.5 61.648-137.5 137.5 61.648 137.5 137.5 137.5 137.5-61.648 137.5-137.5z" fill="#d2d2d2"/>
</svg>
