<?xml version="1.0" encoding="UTF-8"?>
<svg width="1200pt" height="1200pt" version="1.1" viewBox="0 0 1200 1200" xmlns="http://www.w3.org/2000/svg">
 <path d="m294.2 1111c-8.3555 0-16.652-2.625-23.738-7.7734-12.551-9.125-18.715-24.281-16.09-39.562l54.797-319.52-232.14-226.28c-11.113-10.848-15.023-26.734-10.23-41.477 4.7969-14.742 17.309-25.285 32.648-27.52l320.82-46.613 143.48-290.7c6.8477-13.902 20.754-22.551 36.27-22.551s29.426 8.6523 36.277 22.57l143.46 290.69 320.8 46.613c15.348 2.2344 27.867 12.777 32.66 27.523 4.7969 14.754 0.87109 30.637-10.234 41.469l-232.14 226.29 54.809 319.5c2.6133 15.309-3.5586 30.465-16.102 39.562-12.543 9.1133-28.863 10.285-42.594 3.0781l-286.94-150.86-286.94 150.86c-5.9766 3.1445-12.438 4.6953-18.867 4.6953zm305.8-223.3c6.4688 0 12.941 1.5508 18.844 4.6562l254.84 133.98-48.676-283.78c-2.2578-13.113 2.0938-26.516 11.648-35.816l206.16-200.96-284.93-41.402c-13.176-1.918-24.57-10.191-30.465-22.129l-127.42-258.18-127.43 258.18c-5.8867 11.938-17.277 20.211-30.457 22.129l-284.93 41.402 206.18 200.98c9.5391 9.2891 13.887 22.68 11.629 35.828l-48.668 283.75 254.85-133.99c5.875-3.1055 12.344-4.6445 18.812-4.6445zm491.27-374.88h0.125zm-512.94-372.69c0.007813 0.007813 0.007813 0.007813 0.007813 0.011719-0.003906-0.003906-0.003906-0.003906-0.007813-0.011719z" fill="#d2d2d2"/>
</svg>
