<?xml version="1.0" encoding="UTF-8"?>
<svg width="120pt" height="120pt" version="1.1" viewBox="0 0 1200 1200" xmlns="http://www.w3.org/2000/svg">
 <g>
  <path d="m1200 600c0 214.36-114.36 412.44-300 519.62-185.64 107.18-414.36 107.18-600 0-185.64-107.18-300-305.26-300-519.62s114.36-412.44 300-519.62c185.64-107.18 414.36-107.18 600 0 185.64 107.18 300 305.26 300 519.62" fill="#d2d2d2"/>
  <path d="m450.43 442.56c0-82.469 67.102-149.57 149.57-149.57s149.57 67.102 149.57 149.57-67.102 149.57-149.57 149.57-149.57-67.102-149.57-149.57zm244.03 196.8h-188.93c-99.816 0-181.05 81.238-181.05 181.05 0 47.766 38.824 86.594 86.594 86.594h377.86c47.766 0 86.594-38.824 86.594-86.594 0-99.816-81.238-181.05-181.05-181.05z" fill="#fff"/>
 </g>
</svg>
